<svg t="1684579496084" class="icon" viewBox="0 0 1024 1024" version="1.1" xmlns="http://www.w3.org/2000/svg" p-id="6389" width="30" height="30"><path d="M829.5 904.5h-635c-41.36 0-75-33.65-75-75v-635c0-41.36 33.64-75 75-75h635c41.35 0 75 33.64 75 75v635c0 41.36-33.64 75-75 75z m-635-735c-13.78 0-25 11.21-25 25v635c0 13.79 11.22 25 25 25h635c13.79 0 25-11.21 25-25v-635c0-13.79-11.21-25-25-25h-635z" fill="#2C5CCB" p-id="6390"></path><path d="M253.03 241.19m-29.31 0a29.31 29.31 0 1 0 58.62 0 29.31 29.31 0 1 0-58.62 0Z" fill="#2C5CCB" p-id="6391"></path><path d="M339.42 241.19m-29.31 0a29.31 29.31 0 1 0 58.62 0 29.31 29.31 0 1 0-58.62 0Z" fill="#2C5CCB" p-id="6392"></path><path d="M425.82 241.19m-29.31 0a29.31 29.31 0 1 0 58.62 0 29.31 29.31 0 1 0-58.62 0Z" fill="#2C5CCB" p-id="6393"></path><path d="M145.03 312.63h732.52v50H145.03z" fill="#2C5CCB" p-id="6394"></path><path d="M348.03 823.55c-25.59 0-47.89-12.77-64.48-36.93-10.93-15.92-15.63-31.57-16.13-33.3l48.04-13.86-0.04-0.13c0.1 0.34 10.92 34.23 32.61 34.23 5.64 0 14.11-1.48 22.39-14.31 5.17-8 7.7-16.5 8.42-19.24l31.22-263.65c0.04-0.32 0.08-0.64 0.13-0.96 4.19-26.51 26.35-76.64 80.24-76.64 16 0 45.92 6.29 66.42 48.41 9.65 19.83 13.09 38.99 13.45 41.11 2.31 13.61-6.85 26.52-20.46 28.83-13.59 2.31-26.49-6.82-28.82-20.41-2.65-15.04-14.03-47.95-30.59-47.95-6.7 0-15.38 1.63-23.12 14.37-5.26 8.65-7.3 17.93-7.68 19.88l-31.3 264.4c-0.09 0.76-0.21 1.52-0.37 2.26-0.39 1.82-4.08 18.26-14.45 35-15.53 25.08-38.78 38.89-65.48 38.89z" fill="#2C5CCB" p-id="6395"></path><path d="M513.22 581.09H344.65c-13.81 0-25-11.19-25-25s11.19-25 25-25h168.56c13.81 0 25 11.19 25 25s-11.19 25-24.99 25z" fill="#2C5CCB" p-id="6396"></path><path d="M680.2 768.32c-6.4 0-12.8-2.44-17.68-7.32L543.33 641.81c-9.76-9.76-9.76-25.59 0-35.36 9.76-9.76 25.59-9.76 35.36 0l119.19 119.19c9.76 9.76 9.76 25.59 0 35.36-4.88 4.88-11.28 7.32-17.68 7.32z" fill="#2C5CCB" p-id="6397"></path><path d="M561.01 768.32c-6.4 0-12.8-2.44-17.68-7.32-9.76-9.76-9.76-25.59 0-35.36l119.19-119.19c9.76-9.76 25.59-9.76 35.36 0 9.76 9.76 9.76 25.59 0 35.36L578.69 761c-4.88 4.88-11.28 7.32-17.68 7.32z" fill="#2C5CCB" p-id="6398"></path></svg>
