<svg width="200" height="120" viewBox="0 0 200 120" fill="none" xmlns="http://www.w3.org/2000/svg">
<path d="M126.622 16.1479C126.372 15.6945 126.007 15.3143 125.563 15.0453L101.563 0.437556C100.603 -0.145852 99.3966 -0.145852 98.4369 0.437556L74.4369 15.0453C73.9932 15.3143 73.6281 15.6945 73.3779 16.1479L99.9999 32.3512L126.622 16.1479Z" fill="#A0E6EE"/>
<path d="M73.378 16.1479C73.131 16.5903 73.001 17.0879 73 17.5941V44.1206C73.0006 45.1614 73.545 46.127 74.437 46.6692L98.437 61.277C98.9075 61.5638 99.4484 61.7158 100 61.7163V32.3513L73.378 16.1479Z" fill="#6CC4F5"/>
<path d="M126.622 16.1479C126.869 16.5903 126.999 17.0879 127 17.5941V44.1206C126.999 45.1614 126.455 46.127 125.563 46.6692L101.563 61.277C101.092 61.5638 100.552 61.7158 100 61.7163V32.3513L126.622 16.1479Z" fill="#2594D0"/>
<path d="M171.622 43.5886C171.372 43.1351 171.007 42.755 170.563 42.486L146.563 27.8782C145.603 27.2948 144.397 27.2948 143.437 27.8782L119.437 42.486C118.993 42.755 118.628 43.1351 118.378 43.5886L145 59.7949L171.622 43.5886Z" fill="#A0E6EE"/>
<path d="M118.378 43.5886C118.131 44.0319 118 44.5306 118 45.0377V71.5642C118.001 72.6051 118.545 73.5706 119.437 74.1129L143.437 88.7207C143.908 89.0074 144.448 89.1594 145 89.1599V59.7949L118.378 43.5886Z" fill="#6CC4F5"/>
<path d="M171.622 43.5886C171.869 44.0319 172 44.5306 172 45.0377V71.5642C171.999 72.6051 171.455 73.5706 170.563 74.1129L146.563 88.7207C146.092 89.0074 145.552 89.1594 145 89.1599V59.7949L171.622 43.5886Z" fill="#2594D0"/>
<path d="M81.6219 43.5886C81.3718 43.1351 81.0067 42.755 80.5629 42.486L56.5629 27.8782C55.6033 27.2948 54.3966 27.2948 53.4369 27.8782L29.4369 42.486C28.9932 42.755 28.6281 43.1351 28.3779 43.5886L54.9999 59.7949L81.6219 43.5886Z" fill="#A0E6EE"/>
<path d="M28.378 43.5886C28.1306 44.0319 28.0005 44.5306 28 45.0377V71.5642C28.0006 72.6051 28.545 73.5706 29.437 74.1129L53.437 88.7207C53.9075 89.0074 54.4484 89.1594 55 89.1599V59.7949L28.378 43.5886Z" fill="#6CC4F5"/>
<path d="M81.622 43.5886C81.8694 44.0319 81.9995 44.5306 82 45.0377V71.5642C81.9994 72.6051 81.455 73.5706 80.563 74.1129L56.563 88.7207C56.0925 89.0074 55.5516 89.1594 55 89.1599V59.7949L81.622 43.5886Z" fill="#2594D0"/>
<path d="M126.622 73.4318C126.372 72.9784 126.007 72.5982 125.563 72.3293L101.563 57.7215C100.603 57.1381 99.3966 57.1381 98.4369 57.7215L74.4369 72.3293C73.9932 72.5982 73.6281 72.9784 73.3779 73.4318L99.9999 89.6351L126.622 73.4318Z" fill="#A0E6EE"/>
<path d="M73.378 73.4316C73.131 73.874 73.001 74.3716 73 74.8778V101.404C73.0006 102.445 73.545 103.411 74.437 103.953L98.437 118.561C98.9075 118.847 99.4484 118.999 100 119V89.635L73.378 73.4316Z" fill="#6CC4F5"/>
<path d="M126.622 73.4316C126.869 73.874 126.999 74.3716 127 74.8778V101.404C126.999 102.445 126.455 103.411 125.563 103.953L101.563 118.561C101.092 118.847 100.552 118.999 100 119V89.635L126.622 73.4316Z" fill="#2594D0"/>
</svg>
